# xmcd CD database file
#
# Track frame offsets:
#	182
#	22520
#	44787
#	60635
#	77712
#	99235
#	116410
#	135762
#	161687
#	179047
#
# Disc length: 2668 seconds
#
# Revision: 2
# Processed by: cddbd v1.5.2PL0 Copyright (c) Steve Scherf et al.
# Submitted via: CDex 1.70beta2
#
DISCID=750a6a0a
DTITLE=Jorge Palma - O Lado Errado da Noite
DYEAR=1985
DGENRE=
TTITLE0=Há muito tempo
TTITLE1=Nunca é tarde para se ter uma infância feliz
TTITLE2=Deixa-me rir
TTITLE3=Jeremias, o fora da lei
TTITLE4=Razão de estado
TTITLE5=Cara de anjo mau
TTITLE6=O homem invisível
TTITLE7=Fátima
TTITLE8=Imaginação
TTITLE9=O lado errado da noite
EXTD=YEAR: 1985
EXTT0=
EXTT1=
EXTT2=
EXTT3=
EXTT4=
EXTT5=
EXTT6=
EXTT7=
EXTT8=
EXTT9=
PLAYORDER=
